<?xml version="1.0" encoding="utf-8" ?>
<svg baseProfile="full" height="500" version="1.1" width="500" xmlns="http://www.w3.org/2000/svg" xmlns:ev="http://www.w3.org/2001/xml-events" xmlns:xlink="http://www.w3.org/1999/xlink"><defs /><rect fill="rgb(255,255,255)" height="100%" width="100%" x="0" y="0" /><polygon fill="rgb(255,0,0)" points="110.0,60.0 107.4295755901655,60.0000485376003 100.41563759735712,60.0046776117624 90.77233100583837,60.06391486860091 80.73373227601661,60.38412293712768 72.17178581596144,61.44686465091758 66.07708892152243,63.99630778606446 62.48404447026682,68.79368125729931 60.78066765815923,76.1824532408411 60.1686036237457,85.66889549323993 60.019899970452826,95.78317243849345 60.00070872629688,104.3840286452101 60.000000484094905,109.34590902011219 59.999999515905095,109.34590902011219 59.99929127370312,104.38402864521007 59.980100029547174,95.78317243849345 59.8313963762543,85.66889549323992 59.21933234184077,76.18245324084108 57.51595552973318,68.79368125729931 53.92291107847756,63.996307786064456 47.828214184038565,61.44686465091759 39.26626772398339,60.38412293712768 29.227668994161608,60.06391486860091 19.58436240264289,60.0046776117624 12.570424409834501,60.0000485376003 10.0,60.0 12.570424409834501,59.9999514623997 19.58436240264289,59.9953223882376 29.227668994161657,59.93608513139909 39.266267723983404,59.61587706287232 47.82821418403857,58.55313534908241 53.92291107847757,56.00369221393554 57.51595552973319,51.20631874270068 59.21933234184077,43.81754675915888 59.831396376254304,34.33110450676002 59.980100029547174,24.21682756150655 59.99929127370312,15.615971354789913 59.999999515905095,10.654090979887812 60.000000484094905,10.654090979887812 60.00070872629688,15.615971354789941 60.019899970452826,24.21682756150652 60.1686036237457,34.33110450676007 60.78066765815923,43.817546759158915 62.484044470266824,51.20631874270071 66.07708892152246,56.00369221393555 72.17178581596148,58.553135349082424 80.73373227601661,59.61587706287232 90.7723310058384,59.93608513139909 100.41563759735715,59.9953223882376 107.4295755901655,59.9999514623997" stroke="rgb(0,0,0)" stroke-width="1" /><text x="55" y="125">0.3</text><polygon fill="rgb(255,85,0)" points="230.0,60.0 228.44149577848992,60.01233772205837 224.0065844697153,60.19125046752214 217.3666564325935,60.91822506152292 209.48454930219322,62.693209553243385 201.41906864453026,65.96821892578289 194.11904610501736,70.97952012855168 188.2543640985553,77.62342982784155 184.12161777494387,85.4105823531975 181.64326704012197,93.51446652755646 180.45593135546974,100.9067810742171 180.06164177417753,106.55046606859011 180.000777224192,109.60651228991588 179.999222775808,109.60651228991588 179.93835822582247,106.5504660685901 179.54406864453026,100.9067810742171 178.35673295987803,93.51446652755645 175.87838222505613,85.4105823531975 171.74563590144467,77.62342982784155 165.88095389498264,70.97952012855167 158.58093135546974,65.96821892578289 150.51545069780678,62.69320955324338 142.63334356740648,60.91822506152292 135.9934155302847,60.19125046752214 131.55850422151008,60.01233772205837 130.0,60.0 131.55850422151008,59.98766227794163 135.9934155302847,59.80874953247786 142.63334356740654,59.081774938477075 150.5154506978068,57.306790446756615 158.58093135546977,54.0317810742171 165.88095389498264,49.020479871448316 171.7456359014447,42.37657017215844 175.87838222505613,34.589417646802474 178.35673295987803,26.4855334724435 179.54406864453026,19.0932189257829 179.93835822582247,13.449533931409889 179.999222775808,10.39348771008411 180.000777224192,10.39348771008411 180.06164177417753,13.449533931409903 180.45593135546974,19.093218925782878 181.64326704012197,26.485533472443528 184.12161777494387,34.58941764680251 188.25436409855533,42.37657017215847 194.1190461050174,49.020479871448345 201.4190686445303,54.03178107421713 209.48454930219322,57.306790446756615 217.36665643259352,59.08177493847708 224.00658446971534,59.80874953247786 228.44149577848992,59.98766227794163" stroke="rgb(0,0,0)" stroke-width="1" /><text x="175" y="125">0.5</text><polygon fill="rgb(255,170,0)" points="350.0,60.0 349.2145790282158,60.78542097178422 346.90766700109657,63.09233299890341 343.2242156855353,66.77578431446472 338.3956698744749,71.60433012552508 332.7254248593737,77.27457514062631 326.5697629882328,83.43023701176716 320.31546713535687,89.68453286464312 314.3555177108732,95.64448228912681 309.06440025628274,100.93559974371725 304.7745751406263,105.22542485937367 301.7555878527937,108.24441214720629 300.19713246713803,109.80286753286194 299.80286753286197,109.80286753286194 298.2444121472063,108.24441214720628 295.2254248593737,105.22542485937367 290.93559974371726,100.93559974371723 285.6444822891268,95.64448228912681 279.68453286464313,89.68453286464312 273.43023701176713,83.43023701176716 267.2745751406263,77.27457514062633 261.6043301255251,71.60433012552508 256.7757843144647,66.7757843144647 253.09233299890343,63.09233299890341 250.78542097178422,60.78542097178422 250.0,60.0 250.78542097178422,59.21457902821578 253.09233299890343,56.907667001096584 256.7757843144647,53.22421568553528 261.6043301255251,48.39566987447491 267.2745751406263,42.725424859373675 273.4302370117672,36.56976298823283 279.68453286464313,30.315467135356872 285.6444822891268,24.355517710873166 290.93559974371726,19.06440025628273 295.2254248593737,14.774575140626318 298.2444121472063,11.75558785279371 299.80286753286197,10.197132467138054 300.19713246713803,10.197132467138054 301.7555878527937,11.755587852793724 304.7745751406263,14.774575140626311 309.06440025628274,19.064400256282752 314.3555177108732,24.355517710873194 320.3154671353569,30.3154671353569 326.56976298823287,36.56976298823287 332.72542485937373,42.72542485937372 338.3956698744749,48.39566987447491 343.2242156855353,53.22421568553529 346.90766700109657,56.9076670010966 349.2145790282158,59.21457902821578" stroke="rgb(0,0,0)" stroke-width="1" /><text x="295" y="125">1</text><polygon fill="rgb(255,255,0)" points="110.0,180.0 109.39472783803988,182.0482341898155 107.60386123479446,185.87777928564017 104.70145229223846,190.7465650698556 100.80831417168825,196.25580647916058 96.08829636470011,202.07607332375088 90.7434662850514,207.90900616456628 85.00867175513808,213.48000807405657 79.14628451044203,218.53986956097725 73.44264326336359,222.86944040767912 68.20970378421057,226.28510725095813 63.80265880923026,228.6439962518647 60.70725540606072,229.84829054443927 59.29274459393928,229.84829054443927 56.197341190769734,228.64399625186468 51.790296215789425,226.28510725095813 46.55735673663641,222.8694404076791 40.853715489557956,218.53986956097725 34.99132824486191,213.48000807405657 29.256533714948592,207.90900616456628 23.911703635299894,202.0760733237509 19.191685828311748,196.25580647916058 15.29854770776155,190.7465650698556 12.396138765205535,185.87777928564017 10.605272161960116,182.0482341898155 10.0,180.0 10.605272161960116,177.9517658101845 12.396138765205535,174.1222207143598 15.298547707761564,169.25343493014438 19.191685828311755,163.74419352083942 23.9117036352999,157.9239266762491 29.2565337149486,152.09099383543372 34.99132824486192,146.51999192594343 40.853715489557985,141.46013043902272 46.557356736636436,137.13055959232088 51.790296215789425,133.71489274904187 56.19734119076974,131.3560037481353 59.29274459393928,130.15170945556073 60.707255406060725,130.15170945556073 63.80265880923027,131.35600374813532 68.20970378421056,133.71489274904184 73.44264326336359,137.13055959232088 79.14628451044204,141.46013043902275 85.00867175513811,146.51999192594343 90.74346628505143,152.09099383543375 96.08829636470014,157.92392667624915 100.80831417168825,163.74419352083942 104.70145229223846,169.2534349301444 107.60386123479446,174.12222071435983 109.39472783803988,177.9517658101845" stroke="rgb(0,0,0)" stroke-width="1" /><text x="55" y="245">1.3</text><polygon fill="rgb(220,221,0)" points="230.0,180.0 229.53648232478517,184.34381647798665 228.15711840976203,189.7270145049488 225.89531010375612,195.43034488250842 222.80619433707,201.1749789498966 218.96591513413586,206.7585499514608 214.47077044059367,212.01303676776195 209.43647309172164,216.79341767898956 203.99800907050164,220.97439387123455 198.31118777251902,224.4498891970572 192.55883215324533,227.13357563350812 186.9719435945743,228.9597099707654 181.92631692882438,229.88394542265854 178.07368307117562,229.88394542265854 173.0280564054257,228.9597099707654 167.44116784675464,227.13357563350812 161.68881222748098,224.4498891970572 156.00199092949836,220.97439387123455 150.56352690827836,216.79341767898956 145.52922955940633,212.01303676776195 141.03408486586414,206.75854995146082 137.19380566293,201.17497894989657 134.10468989624388,195.43034488250842 131.84288159023797,189.7270145049488 130.46351767521483,184.34381647798662 130.0,180.0 130.46351767521483,175.65618352201335 131.84288159023797,170.27298549505116 134.10468989624388,164.56965511749155 137.19380566293003,158.8250210501034 141.03408486586414,153.24145004853918 145.52922955940633,147.98696323223805 150.5635269082784,143.20658232101044 156.0019909294984,139.02560612876545 161.688812227481,135.55011080294278 167.44116784675464,132.86642436649188 173.0280564054257,131.0402900292346 178.07368307117565,130.11605457734146 181.92631692882438,130.11605457734146 186.97194359457433,131.0402900292346 192.55883215324533,132.86642436649188 198.31118777251902,135.5501108029428 203.99800907050164,139.02560612876545 209.43647309172164,143.20658232101047 214.4707704405937,147.98696323223808 218.96591513413588,153.24145004853924 222.80619433707,158.8250210501034 225.89531010375612,164.56965511749158 228.15711840976203,170.2729854950512 229.53648232478517,175.65618352201338" stroke="rgb(0,0,0)" stroke-width="1" /><text x="175" y="245">1.7</text><polygon fill="rgb(85,196,0)" points="350.0,180.0 349.6057350657239,186.2666616782152 348.42915805643156,192.43449435824274 346.48882429441255,198.40622763423391 343.8153340021932,204.08768370508577 340.45084971874735,209.38926261462365 336.44843137107057,214.22735529643444 331.87119948743447,218.52566213878947 326.79133974894984,222.21639627510075 321.2889645782536,225.24135262330097 315.45084971874735,227.55282581475768 309.3690657292862,229.11436253643444 303.1395259764657,229.9013364214136 296.8604740235343,229.9013364214136 290.63093427071374,229.11436253643444 284.54915028125265,227.55282581475768 278.7110354217464,225.24135262330097 273.20866025105016,222.21639627510075 268.12880051256553,218.52566213878947 263.55156862892943,214.22735529643444 259.54915028125265,209.38926261462365 256.1846659978068,204.08768370508577 253.51117570558742,198.4062276342339 251.57084194356844,192.43449435824274 250.39426493427612,186.2666616782152 250.0,179.99999999999997 250.39426493427612,173.7333383217848 251.57084194356844,167.56550564175726 253.51117570558745,161.59377236576609 256.1846659978068,155.91231629491423 259.54915028125265,150.61073738537632 263.55156862892943,145.77264470356556 268.12880051256553,141.47433786121053 273.20866025105016,137.78360372489925 278.7110354217464,134.758647376699 284.54915028125265,132.44717418524232 290.6309342707138,130.88563746356556 296.8604740235343,130.0986635785864 303.1395259764657,130.0986635785864 309.36906572928626,130.88563746356556 315.45084971874735,132.44717418524232 321.2889645782536,134.75864737669903 326.79133974894984,137.78360372489925 331.8711994874345,141.47433786121056 336.44843137107057,145.7726447035656 340.4508497187474,150.61073738537638 343.8153340021932,155.91231629491423 346.48882429441255,161.5937723657661 348.42915805643156,167.56550564175728 349.6057350657239,173.7333383217848" stroke="rgb(0,0,0)" stroke-width="1" /><text x="295" y="245">2.0</text><polygon fill="rgb(0,255,0)" points="110.0,300.0 109.73681006131396,312.52220571199865 108.94721060697047,319.77312997821076 107.63092804618393,325.68225737488314 105.7868485414783,330.72699063114277 103.41186402706316,335.0845406258544 100.49883804431063,338.8363938578121 97.03300387024288,342.0232924771343 92.98523804921821,344.66603891667484 88.29825751473741,346.7749920204952 82.85379077161093,348.35494437460665 76.37272090043099,349.4078181510156 67.89888980737915,349.9342026297228 52.101110192620844,349.9342026297228 43.627279099568995,349.4078181510156 37.14620922838907,348.35494437460665 31.70174248526258,346.7749920204952 27.014761950781768,344.66603891667484 22.96699612975712,342.0232924771343 19.50116195568937,338.8363938578121 16.58813597293684,335.0845406258544 14.213151458521693,330.72699063114277 12.36907195381606,325.68225737488314 11.052789393029528,319.77312997821076 10.26318993868604,312.5222057119986 10.0,299.9999999976529 10.26318993868604,287.47779428800135 11.052789393029528,280.22687002178924 12.369071953816068,274.31774262511686 14.2131514585217,269.27300936885723 16.58813597293684,264.9154593741456 19.50116195568937,261.1636061421879 22.966996129757128,257.9767075228657 27.01476195078179,255.33396108332516 31.701742485262603,253.22500797950482 37.14620922838907,251.64505562539335 43.627279099569,250.5921818489844 52.101110192620865,250.06579737027724 67.89888980737918,250.06579737027724 76.37272090043103,250.5921818489844 82.85379077161092,251.64505562539335 88.29825751473741,253.22500797950482 92.98523804921822,255.33396108332516 97.0330038702429,257.9767075228657 100.49883804431065,261.163606142188 103.41186402706319,264.9154593741456 105.7868485414783,269.27300936885723 107.63092804618394,274.31774262511686 108.94721060697049,280.2268700217893 109.73681006131396,287.4777942880014" stroke="rgb(0,0,0)" stroke-width="1" /><text x="55" y="365">3.0</text><polygon fill="rgb(0,127,127)" points="230.0,300.0 229.8419193816569,321.7869532814863 229.36563981394164,328.65716699337315 228.56478023337212,333.5249329628865 227.42774249780305,337.3336127648145 225.93598804971904,340.4256934552855 224.06091781721807,342.96663472985654 221.75816116075896,345.04867764539335 218.9564860101963,346.7277065341799 215.53397711821634,348.03925182603984 211.25812690024583,349.00636999010754 205.58942438779067,349.6438445751463 196.52447365020225,349.9605111811424 163.47552634979775,349.9605111811424 154.41057561220933,349.6438445751463 148.74187309975417,349.00636999010754 144.46602288178366,348.03925182603984 141.04351398980367,346.7277065341799 138.24183883924104,345.04867764539335 135.9390821827819,342.96663472985654 134.06401195028096,340.4256934552855 132.57225750219695,337.3336127648145 131.43521976662788,333.5249329628865 130.63436018605836,328.65716699337315 130.1580806183431,321.7869532814863 130.0,299.99996823786626 130.1580806183431,278.2130467185137 130.63436018605836,271.34283300662685 131.43521976662788,266.4750670371135 132.57225750219698,262.6663872351855 134.06401195028096,259.5743065447145 135.93908218278193,257.03336527014346 138.24183883924104,254.95132235460665 141.0435139898037,253.2722934658201 144.46602288178366,251.96074817396013 148.74187309975417,250.99363000989243 154.41057561220933,250.35615542485368 163.47552634979775,250.0394888188576 196.5244736502023,250.0394888188576 205.5894243877907,250.35615542485368 211.25812690024583,250.99363000989243 215.53397711821634,251.96074817396013 218.95648601019633,253.2722934658201 221.758161160759,254.95132235460665 224.0609178172181,257.03336527014346 225.93598804971907,259.5743065447145 227.42774249780305,262.6663872351855 228.56478023337212,266.4750670371135 229.36563981394164,271.34283300662685 229.8419193816569,278.2130467185137" stroke="rgb(0,0,0)" stroke-width="1" /><text x="175" y="365">5.0</text><polygon fill="rgb(0,0,255)" points="350.0,300.0 349.9208971181693,333.0052672171324 349.6818074419307,337.85311545525224 349.27716521542817,340.9419912576846 348.69689029999915,343.2050996786343 347.92493508066497,344.95869963382256 346.93661567327695,346.3500996384347 345.69363257651935,347.45981334002136 344.1341625105747,348.33616996317556 342.1509057543348,349.00982137594457 339.5336103209951,349.50069190936 335.76969694293666,349.82160403637477 328.74410691794253,349.98025169061395 271.25589308205747,349.98025169061395 264.23030305706334,349.82160403637477 260.4663896790049,349.50069190936 257.8490942456652,349.00982137594457 255.8658374894253,348.33616996317556 254.30636742348065,347.45981334002136 253.06338432672308,346.3500996384347 252.07506491933503,344.95869963382256 251.30310970000085,343.2050996786343 250.72283478457183,340.9419912576846 250.31819255806928,337.8531154552523 250.0791028818307,333.0052672171324 250.0,299.96014894371353 250.0791028818307,266.9947327828676 250.31819255806928,262.1468845447477 250.72283478457183,259.05800874231534 251.30310970000085,256.7949003213657 252.07506491933503,255.04130036617744 253.06338432672308,253.64990036156527 254.30636742348068,252.54018665997864 255.86583748942533,251.66383003682444 257.8490942456652,250.99017862405543 260.4663896790049,250.49930809064 264.23030305706334,250.1783959636252 271.25589308205747,250.01974830938605 328.7441069179426,250.01974830938605 335.7696969429367,250.1783959636252 339.5336103209951,250.49930809064 342.1509057543348,250.99017862405543 344.1341625105747,251.66383003682444 345.69363257651935,252.54018665997864 346.93661567327695,253.64990036156527 347.92493508066497,255.04130036617747 348.69689029999915,256.7949003213657 349.27716521542817,259.0580087423154 349.6818074419307,262.14688454474776 349.9208971181693,266.9947327828676" stroke="rgb(0,0,0)" stroke-width="1" /><text x="295" y="365">10.0</text></svg>